<svg xmlns="http://www.w3.org/2000/svg" style="fill-rule:evenodd; clip-rule:evenodd" width="48" height="48" viewBox="0 0 60 60">
                        <polygon class="g-fill-primary" points="56.14870071411133,9.169990539550781 42.863704681396484,3.4079971313476562 42.863704681396484,49.37999725341797 3.851299285888672,43.495994567871094 42.60969924926758,56.592002868652344 56.14870071411133,51.05199432373047"></polygon>
                        <path class="g-fill-primary" d="m12.159003,13.396001l20.6316,0l0,28.1622l-20.6316,0l0,-28.1622zm4.0149,4.2168l12.6018,0l0,19.7286l-12.6018,0l0,-19.7286z"></path>
                        <path style="fill:#ff3333" d="m36.927703,6.266001c2.3484,0 4.2534,1.905 4.2534,4.2534c0,2.3488 -1.905,4.2538 -4.2534,4.2538c-2.3488,0 -4.2538,-1.905 -4.2538,-4.2538c0,-2.3484 1.905,-4.2534 4.2538,-4.2534zm-0.0001,2.0131c1.237,0 2.2404,1.0034 2.2404,2.2404c0,1.2372 -1.0034,2.2406 -2.2404,2.2406c-1.2372,0 -2.2406,-1.0034 -2.2406,-2.2406c0,-1.237 1.0034,-2.2404 2.2406,-2.2404z"></path>
                    </svg>